<svg width="379" height="184" viewBox="0 0 379 184" fill="none" xmlns="http://www.w3.org/2000/svg">
<g clip-path="url(#clip0_1_2)">
<rect width="379" height="184" fill="white"/>
<path d="M362.816 23.7627L362.72 18.8139L350.822 18.7187C351.565 35.4961 351.565 41.5542 351.565 69.8869C356.024 72.3106 360.935 74.8274 362.869 76.597L372.165 63.6425C369.562 63.3631 365.174 61.5003 362.72 59.7286C362.72 43.0444 362.72 37.8266 362.869 32.141L362.816 23.7627Z" fill="#5855EA"/>
<path d="M197.166 59.7286L186.011 69.8869C190.469 72.3106 195.011 74.8274 196.943 76.597L206.239 63.6425C203.636 63.3631 199.62 61.5003 197.166 59.7286Z" fill="#4643D1"/>
<path d="M111.565 29.5311L118.961 16.8581L118.854 16.7629L99.1461 27.7614C99.8909 38.758 99.8909 48.1712 99.8909 66.9996C104.873 68.8624 112.904 72.7762 119.378 76.597L128.079 63.6425C122.948 62.7111 114.843 60.4737 111.049 57.6775C111.049 45.7475 111.049 39.1305 111.57 29.529L111.565 29.5311Z" fill="#5855EA"/>
<path d="M72.7201 63.7646L71.3296 63.1768C67.2391 61.8728 63.2245 60.1943 59.8787 57.6775C59.8787 45.7475 60.0439 39.1078 60.5624 29.5083H60.5905L67.9162 16.9719L67.6866 16.7649L47.9803 27.7614C48.7234 38.758 48.7234 48.1712 48.7234 66.9996C52.8883 68.3035 58.7624 72.7762 64.1906 76.597C64.1906 76.597 70.8837 66.625 72.5203 64.2013L72.7201 63.7646Z" fill="#5855EA"/>
<path d="M251.975 65.6108L239.554 63.4666C235.02 62.0695 230.335 60.3909 226.692 57.6878C226.692 45.851 226.692 39.234 227.212 29.8208L227.263 29.8312L235.987 16.7649L214.795 27.7635C215.538 38.76 215.538 48.1732 215.538 67.0017C219.701 68.3056 227.659 73.8049 230.782 76.5991L251.975 65.6108Z" fill="#5855EA"/>
<path d="M339.781 45.1825H330.658H321.587C321.661 39.8694 321.81 35.2104 322.107 29.5249L322.162 29.5456L329.405 16.7649L309.697 27.7635C310.441 38.76 310.441 48.1732 310.441 67.0017C315.422 68.8644 323.455 72.7783 329.928 76.5991L338.629 63.6445C333.499 62.7132 325.393 60.4758 321.6 57.6796V49.2888L331.045 53.9499C334.214 50.5327 335.85 48.67 339.789 45.1887" fill="#5855EA"/>
<path d="M13.099 18.8139L31.4661 21.6081L33.9961 5.76421L11.7498 2.97627L13.0941 18.8988L13.099 18.8139Z" fill="#4643D1"/>
<path d="M36.4501 82.7503C35.7053 65.973 35.7053 53.9499 35.7053 35.1235C31.5404 33.8196 22.8407 28.3203 19.7179 25.522C19.7179 25.522 15.4457 31.4787 12.6928 35.3222V39.3251C16.6199 40.8112 20.6196 42.5787 23.8085 45.2735C23.8085 60.186 23.8085 67.8337 23.0637 84.5986L36.4501 82.7503Z" fill="#4643D1"/>
<path d="M351.519 69.9821C355.958 72.3913 360.932 74.8398 362.862 76.6053L372.158 63.6508C369.699 63.3858 365.341 61.3927 362.831 59.7182L351.519 69.9821Z" fill="#4643D1"/>
<path d="M211.665 153.161L209.172 138.815L196.258 141.574C193.762 133.482 192.661 128.883 191.047 120.79C194.715 117.94 202.64 111.594 206.016 108.101C211.961 109.938 217.977 112.147 222.819 112.147L219.737 127.136C215.041 125.849 208.29 122.63 203.884 120.24L208.065 135.688L219.295 131.366C221.277 138.818 222.598 145.712 223.919 154.548C219.224 158.503 214.894 164.019 212.253 166.966C204.475 165.128 200.219 164.116 192.075 164.116C193.249 157.586 195.377 152.345 197.359 148.386L211.665 153.161Z" fill="#4643D1"/>
<path d="M246.664 109.934H253.121L252.094 119.041H246.444C246.297 126.768 246.297 135.318 246.297 150.309C248.72 152.056 252.682 153.896 255.249 154.171L246.078 166.954C244.17 165.207 239.693 162.723 235.29 160.33C235.29 143.226 235.29 130.259 235.145 119.039H231.623C232.944 114.993 233.604 113.981 234.925 109.932C234.853 106.163 234.706 102.481 234.559 98.8964L247.032 100.736C246.887 104.141 246.738 107.084 246.664 109.934Z" fill="#4643D1"/>
<path d="M235.29 160.33C235.29 143.226 235.29 130.259 235.145 119.039H231.623C232.944 114.993 233.604 113.981 234.925 109.932C234.853 106.163 234.706 102.481 234.559 98.8964L247.032 100.736C246.887 104.139 246.74 107.082 246.665 109.932H253.122L252.095 119.039H246.446C246.299 126.765 246.299 135.316 246.299 150.307" fill="#5855EA"/>
<path d="M197.926 141.214L209.459 135.15L208.07 135.684L203.889 120.235L205.577 108.537C202 112.101 194.568 118.058 191.044 120.786C192.658 128.879 193.759 133.478 196.254 141.57L197.926 141.214Z" fill="#5855EA"/>
<path d="M211.665 153.161L197.357 148.38C195.376 152.335 193.249 157.576 192.073 164.11C200.218 164.11 204.473 165.122 212.252 166.96C214.858 164.062 219.108 158.648 223.732 154.707L211.665 153.161Z" fill="#5855EA"/>
<path d="M182.812 114.405L182.661 136.121C178.647 139.664 177.01 141.529 173.813 144.977L164.369 140.316V148.705C168.167 151.501 176.259 153.738 181.398 154.67L172.697 167.624C166.228 163.803 158.196 159.89 153.21 158.025C153.21 139.19 153.21 129.783 152.467 118.787L172.175 107.79C175.301 110.584 178.199 111.704 182.812 114.405ZM173.44 136.214V124.845C170.763 123.168 168.309 121.947 164.889 120.558C164.592 126.242 164.443 130.907 164.369 136.214H173.44Z" fill="#5855EA"/>
<path d="M165.37 120.558L165.358 120.753C168.532 122.069 170.89 123.247 173.44 124.845V136.214H182.557L182.661 136.121L182.812 114.405C178.411 111.828 175.57 110.679 172.606 108.161L165.37 120.558Z" fill="#4643D1"/>
<path d="M137.339 168.548L137.445 168.47C137.298 147.06 137.445 139.582 137.885 116.703H141.853L145.013 106.206H138.106L138.967 97.2778C143.449 95.4946 146.984 92.5249 150.361 91.8965C150.216 91.7901 141.286 85.0041 139.38 81.9618C137.468 83.9553 130.908 86.5804 126.5 89.3133C126.72 94.6656 126.941 100.332 127.089 106.209H127.016L123.856 116.706H127.383C127.424 118.539 127.464 120.296 127.502 121.999H126.024C126.172 134.976 126.172 160.616 126.172 180.398C130.637 183.164 130.124 181.978 132.058 184L142.64 171.718C140.034 171.396 139.796 170.827 137.339 168.807V168.548Z" fill="#4643D1"/>
<path d="M138.884 98.8302L142.93 96.036L150.124 101.896L155.157 92.2629C155.154 92.2066 155.137 92.0002 155.131 91.9539L140.663 80.1901C136.55 83.4311 128.808 87.8647 125.508 89.6198L138.884 98.8302Z" fill="#4643D1"/>
<path d="M138.125 106.23L138.884 98.7267L140.536 80.306C139.181 81.7246 133.317 85.001 130.322 86.9209V86.8499L125.43 89.5902C125.578 93.7419 125.728 98.0025 125.803 102.357C125.755 102.424 125.753 103.996 125.773 106.221H120.148L117.251 116.728H125.92C125.973 119.74 126.02 122.026 126.02 122.026C126.169 135.016 126.169 160.68 126.169 180.481L137.352 168.88V168.622L137.458 168.544C137.311 147.114 137.458 139.628 137.899 116.728H145.037L148.297 106.23H138.125Z" fill="#5855EA"/>
<path d="M13.0941 18.8988L11.7498 2.97627H11.6854C8.26532 6.51967 4.10045 10.6178 0.383107 13.5071C1.12624 30.2845 0.828987 57.1269 0.084198 74.7425H13.3963C13.0429 66.329 12.7852 56.6323 12.6928 46.9438V29.9968L13.0941 18.8988Z" fill="#5855EA"/>
<path d="M151.537 28.6225C151.838 17.8598 151.868 9.67807 152.171 2.96797L139.53 4.83074C140.273 21.5957 140.126 46.3974 140.126 74.7322H151.435V49.5703L151.537 28.6225Z" fill="#5855EA"/>
<path d="M172.621 47.7055C170.094 46.3063 167.267 44.6298 164.963 43.1396L171.059 40.242V23.5661C165.409 21.2355 163.475 19.8406 159.385 16.7629C159.385 16.7629 154.203 23.92 151.595 27.6L151.577 30.0837C155.147 30.9116 156.708 31.2966 159.907 32.4122V37.3588C159.907 38.2881 154.804 43.388 151.456 47.1135L151.441 49.324L151.607 49.4875C155.9 51.4414 159.17 53.1137 161.471 54.4156C161.471 59.0766 161.396 71.0977 161.396 75.0136L172.626 76.6901C172.243 69.5164 172.243 55.9079 172.621 47.7055Z" fill="#4643D1"/>
<path d="M111.565 29.5311C116.25 31.487 119.226 32.9793 123.24 36.0549L129.488 23.3881C124.93 20.716 122.045 19.5901 118.961 16.8643L111.565 29.5311Z" fill="#4643D1"/>
<path d="M83.0068 59.7286C82.8846 43.063 82.9308 39.1305 82.9308 26.3623C78.8601 25.0853 71.176 19.8095 67.9178 16.9719L60.5822 29.5414L60.5921 29.5869C65.1632 30.6218 68.0367 32.1803 71.7772 34.2025C71.7772 42.6884 71.5939 50.2305 71.3296 63.1789L72.7201 63.7667L72.5451 64.253C75.4433 70.1953 79.4414 74.9267 81.2976 76.5991L90.5917 63.6445C88.0634 63.1768 85.4591 61.5003 83.0068 59.7286Z" fill="#4643D1"/>
<path d="M186.011 69.8869C186.011 52.5528 186.011 39.4099 185.864 28.0388H182.293C183.631 23.9386 184.301 22.9141 185.639 18.8139C185.565 14.9911 185.416 11.2635 185.267 7.63733L197.909 9.5001C197.762 12.9483 197.612 15.9308 197.537 18.8139H204.08L203.04 28.0388H197.314C197.166 35.8686 197.166 44.5367 197.166 59.7286L186.011 69.8869Z" fill="#5855EA"/>
<path d="M227.235 29.8746L227.963 29.9843C232.265 30.9944 236.64 32.3397 240.085 34.1921C240.085 42.9513 240.085 49.8476 239.563 63.4562L251.975 65.6108C251.232 48.8335 251.232 39.1409 251.232 26.3726C247.067 25.0666 239.109 19.5673 235.986 16.7732L227.235 29.8746Z" fill="#4643D1"/>
<path d="M274.796 27.9415C275.228 15.9598 275.076 6.25478 275.25 0.175949L263.5 4.83701C263.723 21.6019 263.574 54.2334 263.574 67.0037C267.739 68.3077 275.697 73.807 278.82 76.6011L298.531 65.6108V65.5818L286.072 63.866V63.8308C281.41 62.796 278.516 61.223 274.735 59.178C274.735 54.6246 274.735 42.5891 274.809 30.1002L274.796 27.9415Z" fill="#5855EA"/>
<path d="M298.53 65.5715C297.788 54.5874 297.788 45.1721 297.788 26.3623C293.622 25.0563 287.748 20.5836 282.32 16.7629C282.32 16.7629 277.233 24.3091 274.837 27.9043V30.0982C279.066 31.4021 283.15 33.1697 286.638 35.6865C286.638 47.5068 286.463 54.3431 286.075 63.8598L298.53 65.5715Z" fill="#4643D1"/>
<path d="M322.125 29.618L322.601 29.8063C325.777 31.1227 328.039 32.1327 330.589 33.7388V45.11L339.776 45.1969C339.812 45.1638 339.941 45.0334 339.969 45.0024L340.027 23.3881C335.626 20.8092 332.397 19.2486 329.433 16.7214L322.125 29.618Z" fill="#4643D1"/>
<path d="M367.25 16.9491L362.937 23.6592L362.831 23.8062V32.0665L363.361 32.408C365.66 33.6219 367.904 34.9948 370.082 36.5206L379 23.7523C375.504 21.6081 370.893 19.1844 367.25 16.9491Z" fill="#4643D1"/>
<path d="M52.7726 141.955L63.9098 123.402L65.761 113.546C62.6068 114.916 59.5781 117.183 56.8434 119.238L53.0171 111.166C56.8847 109.796 59.5352 108.475 63.3202 106.685L73.6234 114.171L69.4602 128.717L61.0495 139.997C65.0014 139.997 69.0391 140.049 72.6986 139.364L70.5947 147.27H55.1689L52.7726 141.955Z" fill="#BE5B00"/>
<path d="M101.262 113.178C101.262 120.399 101.304 132.633 101.726 142.115L89.7396 148.324C87.9726 146.743 83.4725 143.632 81.1176 142.895C81.1176 132.246 81.0763 120.177 80.6552 113.958L92.6411 107.749C94.4065 109.33 98.9066 112.439 101.262 113.178ZM94.7021 140.902C94.9961 133.206 94.9531 122.56 94.9531 117.605C92.8938 116.497 90.2433 115.707 87.6786 115.121C87.3847 120.602 87.426 130.934 87.426 137.627C89.4869 139.163 92.1358 140.121 94.7021 140.902Z" fill="#BE5B00"/>
<path d="M272.662 141.955L283.807 123.402L285.657 113.546C282.503 114.916 279.476 117.183 276.739 119.238L272.913 111.166C276.782 109.796 279.431 108.475 283.216 106.685L293.519 114.171L289.356 128.717L280.945 139.997C284.899 139.997 288.937 140.049 292.595 139.364L290.492 147.27H275.06L272.662 141.955Z" fill="#BE5B00"/>
<path d="M302.733 148.386C302.733 144.275 302.437 125.352 302.437 118.238L306.181 115.179H300.545L301.639 107.749H309.208L308.745 115.127C308.788 126.67 308.873 142.272 309.208 147.332L302.733 148.386Z" fill="#BE5B00"/>
</g>
<defs>
<clipPath id="clip0_1_2">
<rect width="379" height="184" fill="white"/>
</clipPath>
</defs>
</svg>
